<svg xmlns="http://www.w3.org/2000/svg" version="1.1" viewBox="0 0 175.009 98.1801">
  <path  d="M11.6597,72.6838c-.6928,0-1.1768.0153-1.84921.0357l-.10188-.1019c-.05094-.7947-.07132-1.3652-.13754-2.165l-.12226-1.5028c-.43301-.0153-1.27864-.0153-1.71164-.0153h-.93224c-.46866,0-.91695,0-1.6607.0153l-.67243,1.299c-.41772.7947-.6928,1.3652-1.09015,2.165l-.07132.1529-.13754.1018c-.65715,0-1.12581,0-1.79824.0153l-.07132-.1579c.31075-.5858,4.9821-8.8588,6.60714-12.0069l.13754-.0663c.89658-.0204,1.76258-.0509,2.41969-.0509l.1019.0815c.0713,1.4569.7081,8.008,1.1921,12.0936l-.1019.1069ZM8.94449,61.6499l-3.09726,5.8837c.433.0306.79469.0306,1.17675.0306h1.17676c.44828,0,.75903,0,1.19203-.0306l-.44828-5.8837ZM20.1873,72.6482c-.6062,0-1.0188.0153-1.625.0509l-.0713-.1222.1375-.6572c-.5553.3973-1.2786.8813-2.491.8813-2.0785,0-3.2705-1.5537-3.2705-3.459,0-.95261.3311-2.1955.9169-3.1481,1.4519-2.2975,3.7392-2.5981,5.4814-2.5981.433,0,.7437.0153,1.1767.051.6062-2.8171.7285-3.4233.8508-4.2893l.1375-.1223c.6928-.1019,1.1615-.1936,1.8492-.3107l.0866.1019c-.7794,2.924-2.6133,11.0034-3.0463,13.5097l-.1376.10699.0051.0051ZM20.1364,64.9865c-.1376-.03561-.433-.0509-.7947-.0509-2.3535,0-3.5099,1.0239-4.1314,2.3331-.1222.2649-.433,1.0239-.433,1.8492,0,1.2786.7081,2.3026,2.1447,2.3026.4177,0,1.5231-.3108,1.9714-.866l1.243-5.56799ZM26.5194,72.6685c-.7438.0153-1.2634.0357-2.0071.0714l-.1529-.107c-.1222-1.60979-.7794-6.9179-1.0035-8.7671l.1019-.1222c.6571,0,1.1258-.0357,1.7626-.0866l.1222.1018c.0713.9883.1019,1.6811.1885,2.6643l.4126,4.8293c2.9241-5.6749,3.3061-6.3983,3.8257-7.4732l.158-.0713h.6571c.3464,0,.5858,0,.9322-.0153l.0867.1223c-.5197.8966-1.1768,1.9714-1.7117,2.9393l-1.4518,2.60819c-.6215,1.10551-1.1768,2.07841-1.7626,3.21951l-.1579.0866ZM38.3735,72.6838h-.4483c-.433,0-.7437.0153-1.1767.0357l-.0866-.1019.1222-.6877c-.815.6571-1.676.866-2.5267.866-2.0427,0-3.1991-1.5232-3.1991-3.3723,0-1.2787.5552-2.4707.815-2.9241,1.4366-2.5267,3.9939-2.8171,5.8125-2.8171.8151,0,2.5776.0357,2.5776.0357l.0866.1222c-1.4009,6.1029-1.625,7.09109-1.8491,8.7518l-.1223.10699-.0051-.0153ZM35.0317,71.4408c.5349,0,1.4009-.24451,2.0071-.866.433-1.7625.7794-3.5812,1.243-5.5679-.2089,0-.4687-.0356-.7437-.0356-1.6607,0-3.3367.5196-4.2027,2.5776-.1019.24451-.3821.9373-.3821,1.74731,0,1.2277.7285,2.1446,2.0733,2.1446h.0051ZM48.3683,72.6838c-.6572,0-1.1055.0153-1.7626.051l-.0713-.1223c.2445-1.1564.4839-1.93581.7284-3.0769l.4127-1.9765c.0509-.2598.1884-.81.1884-1.27859,0-1.2787-1.1258-1.32961-1.4722-1.32961-1.0545,0-1.8848.62151-2.2822.9169-.4839,2.2313-.9882,4.4625-1.4009,6.7091l-.1222.1069c-.6572,0-1.1055.0153-1.7626.051l-.0866-.1223c.5705-2.2822,1.6607-7.0911,1.8135-8.6499l.1223-.1223c.6724-.0866,1.1564-.1732,1.8339-.3107l.0866.1223-.2445.8813c1.2633-.9679,2.5063-1.0545,2.9087-1.0545.5196,0,2.5064.0866,2.5064,2.3025,0,.5706-.2242,1.732-.5706,3.3367l-.2598,1.2277c-.1732.83041-.3311,1.4009-.433,2.2313l-.1375.1069h.0051ZM57.1761,72.4087c-.6062.3464-1.6251.484-2.2313.484-2.2312,0-3.7696-1.6811-3.7696-3.8767,0-1.4365.6214-3.6678,2.5267-4.8292,1.0035-.6063,2.058-.6929,2.5267-.6929,1.2124,0,2.165.2955,2.6795.6929l.0509.1222c-.1884.4992-.2954.8609-.433,1.3652l-.1732.05099c-.2751-.4687-1.0392-.866-1.9561-.866-2.165,0-3.3367,2.2822-3.3367,4.0142,0,2.0224,1.5741,2.6133,2.4044,2.6133.2955,0,1.1921-.03571,2.109-.8304l.1376.0663c-.1885.5705-.2955.9679-.433,1.5588l-.1019.1222v.0051ZM60.4465,72.6685c-.6724,0-1.1563.0153-1.8339.05099l-.0866-.1019c.5553-2.0071,1.783-7.7126,1.8696-8.6499l.1223-.1223c.708-.0866,1.192-.1528,1.8848-.275l.0866.1222c-.0866-.0204-1.5232,6.5715-1.9205,8.8893l-.1223.0866ZM62.9172,61.2678c-.6724.0866-1.1411.1375-1.8135.2445l-.1019-.1375c.1375-.5859.2445-1.0036.3617-1.5894l.1579-.1223c.6724-.0866,1.1411-.1375,1.7982-.2445l.1376.1223c-.1579.5705-.2598,1.0035-.3974,1.5893l-.1375.1376h-.0051ZM70.4464,72.6838c-.6572,0-1.1054.0153-1.7626.051l-.0713-.1223c.2445-1.1564.48389-1.93581.7285-3.0769l.41769-1.9765c.0509-.2598.1885-.81.1885-1.27859,0-1.2787-1.1259-1.32961-1.4723-1.32961-1.0544,0-1.8848.62151-2.2821.9169-.484,2.2313-.9883,4.4625-1.4009,6.7091l-.1223.1069c-.6571,0-1.1054.0153-1.7677.051l-.0866-.1223c.5706-2.2822,1.6607-7.0911,1.8136-8.6499l.1222-.1223c.6724-.0866,1.1615-.1732,1.8339-.3107l.0866.1223-.2445.8813c1.2633-.9679,2.5063-1.0545,2.9037-1.0545.5196,0,2.50629.0866,2.50629,2.3025,0,.5706-.2241,1.732-.5705,3.3367l-.2598,1.2277c-.17319.83041-.3261,1.4009-.4331,2.2313l-.1375.1069h.0102ZM82.5196,63.7945c-.484,1.9562-.917,3.7391-1.3347,5.6902l-.4839,2.2822c-.60629,2.8731-1.1055,5.2928-4.8955,5.2928-1.0393,0-2.59299-.2394-3.5609-1.2939v-.1375c.2598-.3974.433-.68781.6928-1.10551h.1376c.46861.6062,1.3347,1.22771,2.6133,1.22771,2.5776,0,2.7865-2.38911,2.975-2.9801l.1732-.7081c-1.14111.7947-2.1599.8151-2.542.8151-2.0428,0-3.1125-1.5588-3.1125-3.3571,0-.433.0662-1.9001.9882-3.3214,1.62511-2.5063,4.22311-2.5063,6.2098-2.5063.866,0,2.0733-.0356,2.0733-.0356l.0714.1375h-.0051ZM80.3953,65.0375s-.5196-.0153-.67751-.0153c-1.5588,0-3.23479.2751-4.18739,2.2975-.4127.9016-.4687,1.6097-.4687,1.9918,0,1.7982,1.1615,2.216,2.0224,2.216.9526,0,1.6454-.48399,2.0275-.8457l1.27859-5.6392.0051-.0051ZM92.0864,72.6838c-.67751,0-1.14111.0153-1.8339.0357l-.0866-.1019c.4177-1.6964,2.3535-9.7401,2.5063-10.7079-1.9052.0152-2.7355.0509-3.5455.0713l-.0866-.107c.1579-.4992.2598-.8456.3821-1.35l.1375-.0866c.7947.0204,2.0581.0357,3.0973.0357s4.5491-.0153,5.5883-.0509l.0866.1018c-.1427.4483-.2446.8457-.3821,1.35l-.1172.0866c-.6928-.0509-1.7116-.0509-3.2348-.0713-.3464,1.1767-.4839,2.0427-.7641,3.2552l-.8813,3.9428c-.2598,1.1768-.5043,2.2822-.7284,3.4946l-.1376.107v-.0051ZM102.596,72.1999c-.591.34641-1.488.6928-2.8174.6928-2.9597,0-4.01421-1.7626-4.01421-3.7544,0-3.026,1.84921-5.6393,4.8446-5.6393,2.043,0,3.495.9323,3.495,3.2399,0,.7081-.153,1.3143-.209,1.5741l-.117.0815c-.902,0-2.548-.0153-4.0503-.0153-.7794,0-1.35.0001-2.1294.0357-.0153.1019-.0509.4126-.0509.7438,0,2.2669,1.9714,2.3178,2.5926,2.3178,1.437,0,2.181-.5553,2.853-1.0392l.138.0866c-.189.5705-.311.9679-.449,1.5537l-.086.1223ZM102.372,67.1668c.066-.3973.086-.5705.086-.759-.036-1.5741-1.335-1.6964-1.783-1.6964-1.9916,0-2.6641,1.834-2.8525,2.4758,0,0,3.4435-.0153,4.5495-.0153v-.0051ZM111.016,72.4087c-.606.3464-1.625.484-2.231.484-2.231,0-3.77-1.6811-3.77-3.8767,0-1.4365.622-3.6678,2.527-4.8292,1.004-.6063,2.058-.6929,2.527-.6929,1.212,0,2.16.2955,2.679.6929l.056.1222c-.193.4992-.295.8609-.433,1.3652l-.173.05099c-.28-.4687-1.039-.866-1.956-.866-2.16499,0-3.342,2.2822-3.342,4.0142,0,2.0224,1.574,2.6133,2.405,2.6133.29,0,1.192-.03571,2.109-.8304l.137.0663c-.188.5705-.29501.9679-.43301,1.5588l-.10699.1222.005.0051ZM120.048,72.6838c-.657,0-1.12.0153-1.76199.0357l-.08701-.1019c.158-.6215.347-1.3652.484-1.9867l.499-2.1803c.102-.4687.398-1.7983.398-2.2669,0-1.2124-1.07-1.2634-1.386-1.2634-1.07,0-2.094.7081-2.384.9679l-.693,3.082c-.27499,1.2124-.48399,2.3688-.728,3.5965l-.123.1018c-.636,0-1.105.0153-1.747.0357l-.102-.1019c.24-1.1054,2.614-10.657,2.873-13.255l.138-.1019c.693-.1019,1.192-.1732,1.885-.3107l.086.1222c-.484,1.8186-.866,3.6322-1.314,5.4661.54-.3617,1.559-1.024,2.995-1.024.449,0,2.38499.1019,2.38499,2.1803,0,.7591-.174,1.5538-.311,2.1803l-.469,2.0938c-.188.866-.362,1.7625-.52,2.6285l-.122.107.005-.0051ZM130.048,72.6838c-.657,0-1.11.0153-1.76201.051l-.07199-.1223c.245-1.1564.48399-1.93581.724-3.0769l.41699-1.9765c.05101-.2598.18901-.81.18901-1.27859,0-1.2787-1.12601-1.32961-1.472-1.32961-1.05501,0-1.88501.62151-2.283.9169-.483,2.2313-.983,4.4625-1.4,6.7091l-.123.1069c-.657,0-1.105.0153-1.762.051l-.087-.1223c.571-2.2822,1.656-7.0911,1.814-8.6499l.12199-.1223c.672-.0866,1.161-.1732,1.834-.3107l.08601.1223-.23901.8813c1.263-.9679,2.506-1.0545,2.90401-1.0545.519,0,2.511.0866,2.511,2.3025,0,.5706-.224,1.732-.57001,3.3367l-.25999,1.2277c-.173.83041-.33101,1.4009-.433,2.2313l-.138.1069ZM137.62801,63.499c2.14499,0,3.70399,1.0902,3.70399,3.3928,0,1.8135-.83099,6.0009-4.916,6.0009-1.09,0-3.597-.2598-3.597-3.459,0-2.8017,1.524-5.9347,4.80901-5.9347ZM136.446,71.6141c2.614,0,3.047-4.2231,3.047-4.8089,0-1.67599-1.024-2.0428-1.79799-2.0428-2.38501,0-3.04201,3.55061-3.04201,4.7936,0,1.1054.52,2.0581,1.799,2.0581h-.006ZM143.991,72.6838c-.642.0153-1.106.0153-1.763.051l-.071-.107c.26001-1.4009,2.10901-8.9759,2.715-13.2856l.12201-.1223c.709-.1018,1.198-.1884,1.90599-.326l.086.1019c-.866,3.7391-2.61299,11.9866-2.85199,13.576l-.14301.1069v.0051ZM151.5,63.499c2.144,0,3.703,1.0902,3.703,3.3928,0,1.8135-.83,6.0009-4.916,6.0009-1.09,0-3.59601-.2598-3.59601-3.459,0-2.8017,1.52301-5.9347,4.80901-5.9347ZM150.323,71.6141c2.61301,0,3.04601-4.2231,3.04601-4.8089,0-1.67599-1.024-2.0428-1.798-2.0428-2.384,0-3.041,3.55061-3.041,4.7936,0,1.1054.519,2.0581,1.798,2.0581h-.005ZM165.631,63.7945c-.48399,1.9562-.91699,3.7391-1.33,5.6902l-.48399,2.2822c-.606,2.8731-1.11,5.2928-4.895,5.2928-1.039,0-2.593-.2394-3.56599-1.2939v-.1375c.25999-.3974.433-.68781.69299-1.10551h.13701c.46899.6062,1.33,1.22771,2.614,1.22771,2.577,0,2.786-2.38911,2.97499-2.9801l.173-.7081c-1.14099.7947-2.16499.8151-2.54199.8151-2.043,0-3.11801-1.5588-3.11801-3.3571,0-.433.07201-1.9001.983-3.3214,1.625-2.5063,4.22301-2.5063,6.21001-2.5063.866,0,2.07899-.0356,2.07899-.0356l.06601.1375h.00499ZM163.507,65.0375s-.52-.0153-.673-.0153c-1.55901,0-3.235.2751-4.187,2.2975-.418.9016-.46901,1.6097-.46901,1.9918,0,1.7982,1.162,2.216,2.028,2.216.94701,0,1.64-.48399,2.022-.8457l1.27901-5.6392v-.0051ZM175.009,63.8098c-2.078,3.357-6.938,11.5026-7.595,12.9748l-.138.1019h-.77901c-.34599,0-.672,0-1.019.0204l-.05099-.1223c.49899-.759,2.216-3.408,2.629-4.1721-.662-4.3046-1.299-8.57861-1.386-8.7874l.12201-.1223c.65799,0,1.12599-.0357,1.799-.0866l.13699.0866c.08701.9526.138,1.625.26001,2.5624l.49899,4.0804,1.681-2.975c.65201-1.15639,1.31-2.3382,1.936-3.5812l.138-.1019c.18799.0153.38199.0153.56999.0153.41301,0,.70801-.0153,1.11101-.0357l.086.1376v.0051ZM65.6884,93.9571c-.6571.0204-1.1054.0356-1.7473.0713l-.0866-.10699c.6062-2.8171.2598-1.1564,1.676-7.631-.3311,0-.8303.01521-1.3143.01521l-.1019-.10181c.1223-.4331.20889-.7234.3108-1.1615l.1375-.1223c.4483.03571.7794.051,1.2277.051l.2598-1.2481c.3821-1.8492.7081-3.408,3.1329-3.408.6062,0,1.0036.10699,1.2634.1579l.08659.1376c-.1223.43301-.2089.74371-.3107,1.1767l-.1376.10699c-.1223-.02039-.3617-.1223-.6724-.1223-1.0902,0-1.2634.7081-1.5741,2.0937l-.2395,1.1055h.2955c.5043,0,.8456,0,1.35-.0153l.0866.1375c-.1223.3464-.2089.6928-.3261,1.1055l-.1375.1222c-.55531-.0153-.95261-.0356-1.5232-.0356-.5552,2.7508-1.1258,4.8649-1.5231,7.5597l-.1223.1019-.0102.0102ZM73.7474,84.7723c2.1447,0,3.7035,1.0901,3.7035,3.3876,0,1.8186-.8304,6.0009-4.9108,6.0009-1.0902,0-3.5965-.2598-3.5965-3.4589,0-2.8069,1.52319-5.9347,4.8089-5.9347l-.0051.0051ZM72.5707,92.8822c2.6133,0,3.0463-4.2231,3.0463-4.8089,0-1.676-1.0189-2.0427-1.79829-2.0427-2.3891,0-3.0463,3.5455-3.0463,4.7936,0,1.1105.5196,2.058,1.7983,2.058ZM80.0285,93.9571c-.67751,0-1.14111.0204-1.7982.0356l-.0866-.1069c.7285-2.7152,1.7116-7.1777,1.8848-8.6499l.1223-.1223c.69279-.0866,1.19199-.1579,1.8695-.2955l.0866.1223c-.1375.4992-.24451.9526-.382,1.5181.2598-.43301,1.0188-1.7117,2.2516-1.7117.3821,0,.6215.08659.7947.1936l.0509.1528c-.2598.6215-.433,1.0545-.6775,1.6913l-.1732.056c-.1222-.0866-.3973-.2445-.7285-.2445-.4686,0-1.5384.2445-2.0784,2.4911-.1579.6571-.8456,3.6321-1.00349,4.7426l-.1376.12231.0051.0051ZM98.8158,93.9418c-.5043,0-1.1767.0357-1.86951.0357l-.0714-.0917c.5196-2.14471.8813-3.64751,1.35-5.8125-.6571-.0153-1.1207-.0153-1.7626-.0153h-1.8186c-.759,0-1.299,0-2.0733.051-.4687,1.9052-.8304,3.841-1.2277,5.7462l-.1223.1019c-.69279,0-1.1767,0-1.8492.0356l-.0866-.1222c.1936-.7794,2.3179-9.8776,2.6999-12.04259l.1223-.10191c.6928,0,1.1768-.0153,1.84921-.0357l.0866.1019c-.4992,2.0784-.4483,1.7473-1.1258,4.8293.0713,0,.7081.0204,1.1767.0204,1.5436,0,3.2858-.0204,4.4625-.051.6062-2.7661.8151-3.785,1.0036-4.7579l.1171-.1019c.69331,0,1.1763-.0153,1.8693-.03571l.067.10191c-1.091,4.67139-2.2827,9.89799-2.6851,12.04259l-.1172.10191h.0051ZM108.882,93.9418c-.622.0153-1.07001.0357-1.691.0713l-.092-.1222.209-.8304c-.902.7437-1.9,1.0698-2.817,1.0698-2.10899,0-2.578-1.4366-2.578-2.3688,0-.6215.138-1.27869.448-2.64899l.367-1.6097c.173-.7642.311-1.2991.499-2.3841l.123-.1223c.641,0,1.09-.0356,1.72701-.0713l.086.1019c-.637,2.6286-1.345,5.3794-1.345,6.1589,0,.4992.138,1.4874,1.488,1.4874.779,0,1.559-.3311,2.302-1.0035.902-4.0448,1.299-6.0009,1.386-6.5511l.138-.10699c.641-.0153,1.09-.0509,1.74699-.0866l.066.1223c-.535,2.0224-1.763,7.61069-1.936,8.7874l-.122.1019-.005.0051ZM124.001,93.9571c-.621,0-1.074.0204-1.696.0356l-.102-.1222c.25999-1.0036.499-2.0581.744-3.082l.311-1.3296c.244-1.0392.34599-1.6963.34599-2.0224,0-1.1563-1.003-1.192-1.299-1.192-1.07,0-1.936.6215-2.318.9526-.015.34641-.122,1.1921-.367,2.2669l-.397,1.8186c-.194.8813-.367,1.6913-.52,2.5777l-.122.1019c-.637,0-1.09.0204-1.72701.03561l-.086-.1375c.275-1.0596,1.334-5.3132,1.334-6.383,0-1.14111-.96799-1.2277-1.299-1.2277-.932,0-1.783.6419-2.093.91689l-.571,2.57771c-.326,1.5181-.57,2.5777-.83,4.1161l-.117.0866c-.658.0153-1.106.0153-1.748.0509l-.102-.1222c.673-2.542,1.67599-7.2134,1.85-8.6499l.101-.1019c.693-.0866,1.177-.1732,1.839-.2955l.102.1223-.224.8813c.484-.4177,1.61-1.0545,2.96-1.0545.397,0,1.452.1222,1.885,1.26331,1.436-1.14111,2.80199-1.26331,3.27-1.26331,1.264,0,2.354.6928,2.354,2.109,0,.5909-.13799,1.2277-.296,1.9205l-.295,1.3092c-.311,1.3652-.469,2.3535-.759,3.73911l-.123.1019h-.005ZM134.022,93.9571h-.44901c-.433,0-.743.0204-1.17599.0356l-.08701-.1069.117-.6928c-.81.6571-1.67599.866-2.52701.866-2.04199,0-3.199-1.5232-3.199-3.3724,0-1.2786.55601-2.4707.815-2.924,1.437-2.5267,3.994-2.8171,5.813-2.8171.81001,0,2.57701.0357,2.57701.0357l.08699.1222c-1.401,6.1079-1.625,7.0911-1.849,8.7518l-.12199.1019ZM130.67999,92.7141c.535,0,1.401-.24451,2.007-.866.433-1.7677.77901-3.5812,1.248-5.5679-.209,0-.46899-.0357-.744-.0357-1.65999,0-3.34099.5196-4.202,2.5777-.10201.24451-.382.9373-.382,1.74731,0,1.22759.72801,2.1446,2.078,2.1446h-.005ZM144.021,93.9571c-.65199,0-1.105.0204-1.76199.0509l-.071-.1222c.239-1.1564.48399-1.93581.72299-3.0769l.418-1.9715c.05101-.2547.188-.80991.188-1.2786,0-1.2786-1.12599-1.3296-1.472-1.3296-1.05499,0-1.88499.62659-2.282.917-.48399,2.2312-.983,4.4625-1.401,6.7141l-.12199.1019c-.658,0-1.106.0203-1.76801.0509l-.08701-.1222c.571-2.2822,1.66101-7.0911,1.81401-8.6499l.12199-.1172c.673-.0866,1.162-.1732,1.834-.3108l.08701.1172-.24501.8813c1.263-.9679,2.50601-1.0545,2.90901-1.0545.519,0,2.506.08659,2.506,2.29749,0,.5705-.224,1.732-.57001,3.3418l-.25999,1.2276c-.173.8304-.326,1.4009-.42799,2.2313l-.14301.1019h.00999ZM148.25999,93.9418c-.67299,0-1.16199.0153-1.834.0509l-.08699-.1069c.55-2.0071,1.78299-7.7126,1.87-8.6499l.12199-.1172c.71301-.0866,1.19701-.1579,1.88501-.2751l.08699.1172c-.08699-.0153-1.52399,6.5715-1.92099,8.8944l-.117.0866h-.005ZM150.73,82.541c-.672.0866-1.14099.1376-1.81299.2446l-.10201-.1376c.138-.5909.245-1.0035.362-1.5894l.158-.1222c.67699-.0866,1.14099-.1376,1.79799-.2394l.13701.1222c-.15201.5706-.259,1.0036-.397,1.5894l-.14301.1375v-.0051ZM154.403,93.9214c-.57001.1376-1.024.1579-1.248.1579-1.645,0-2.058-.8456-2.058-1.7116,0-.6571.362-2.1803.866-4.274l.433-1.79829h-.341c-.33099,0-.57599,0-.90199.0153l-.086-.1222c.12199-.3974.209-.7081.31-1.1411l.118-.0866c.453.0153.74301.0153,1.192.0153.209-.7947.31601-1.3704.468-2.1651l.123-.1222c.672-.1376,1.14101-.2598,1.798-.433l.086.1019c-.13701.46861-.224.815-.341,1.28371l-.33099,1.3296c.70799,0,1.192,0,1.88499-.0357l.086.1172c-.15199.4177-.244.7284-.36099,1.14111l-.12201.1018c-.65799-.01521-1.12599-.01521-1.78299-.01521l-.93301,3.9123c-.086.34641-.33099,1.41621-.33099,1.7626,0,.5552.39799.7437.851.7437s.866-.1732,1.019-.2241l.086.0866c-.13699.4483-.24399.759-.366,1.21239l-.118.1375v.0102ZM164.959,85.083c-2.07899,3.3571-6.939,11.5027-7.59599,12.9749l-.13701.107h-.78c-.34599,0-.672,0-1.019.0152l-.05099-.1222c.50499-.759,2.21599-3.408,2.629-4.167-.657-4.3046-1.29901-8.5786-1.386-8.7875l.123-.1222c.657,0,1.125-.0357,1.79799-.0867l.13701.0867c.08701.9526.138,1.625.25999,2.5572l.505,4.0855,1.681-2.9749c.65199-1.1564,1.314-2.3332,1.935-3.5812l.138-.10191c.194.01521.382.0153.57001.0153.418,0,.709-.0153,1.10599-.0357l.08701.1375ZM58.363,45.3944V6.74999h10.7029v38.64951h-10.7029v-.0051ZM74.6847,45.3944h29.4393v-7.4987h-18.7364v-8.1863h17.2334v-7.4935h-17.2334v-7.9724h18.7364v-7.49351h-29.4393v38.64951-.0051ZM110.12,45.3944h29.42899v-7.4987h-18.731v-8.1863h17.228v-7.4935h-17.228v-7.9724h18.731v-7.49351h-29.42899v38.64951-.0051ZM145.545,45.3944h29.439v-7.4987h-18.726v-8.1863h17.228v-7.4935h-17.228v-7.9724h18.726v-7.49351h-29.439v38.64951-.0051ZM51.6897,25.5882c-.0255,1.4111-1.6506,1.6964-2.5013,2.4554-8.5072,6.164-16.1179,13.8001-22.1189,22.3023l-.4839.4839c-.484.2955-1.1156.1783-1.625,0-.6521-.2139-.7234-.9271-1.1411-1.3652-1.3245-2.0631-3.026-3.9989-4.4676-5.9194-.8558-.866-1.569-1.7779-2.4452-2.6999-4.9363-5.41-10.48383-10.1527-16.28609-14.1516-.41263-.4127-.75903-.9577-.56545-1.6251.1783-.7386,1.02902-1.1767,1.59957-1.6199,7.24391-4.9719,13.88667-11.4619,19.49537-18.40526L24.6549.49435c.4636-.3515,1.08-.65205,1.6505-.40244.2598.07132.5553.31074.7947.45338l1.9307,2.74067c1.5894,2.01729,3.2603,4.12628,4.9821,6.03149l4.2434,4.43705c3.841,3.8206,7.9215,7.1878,12.2974,10.1628l.1375.0204c.5604.3566.9373.9985.9985,1.6454v.0051ZM44.2573,23.7136c-2.9037-4.1518-6.4391-8.0743-10.2495-11.6096l-.2496-.1427c-1.3754-1.3296-2.9394-2.63366-4.4421-3.78494-1.4366-1.2226-3.5812-2.32294-5.2878-.99846-1.6352,1.17675-3.1889,2.37389-4.7528,3.7238-.1325.0866-.2853.2598-.3719.3464-3.6372,3.2501-7.2439,6.8059-10.18326,10.5552-.83035,1.0799-1.70654,2.1344-2.02748,3.4131-.01019.6877.0917,1.3295.46357,1.8491,2.49105,3.7086,5.78697,7.2541,9.07267,10.3004,2.8324,2.5268,5.5629,5.3031,8.7977,6.9994,1.0647.4993,2.2669-.0815,3.1533-.7131,4.3962-3.0922,8.3238-6.9689,12.0477-10.978,1.7218-2.1141,3.6882-4.0448,4.6561-6.4645.2648-.9577-.1529-1.7778-.6215-2.5012l-.0051.0051ZM43.4982,26.6988c-.9729,1.625-2.2872,3.1074-3.5353,4.6153v.0815c-3.1075,3.3061-6.3881,6.709-9.9387,9.5108-1.7321,1.0545-3.3214,3.352-5.5476,1.9307-5.0738-3.7086-9.9336-8.3239-14.0548-13.2703-.69791-1.0902-1.78806-1.9817-2.27201-3.2144-.67752-1.6709.81507-2.8681,1.67089-4.1263,4.19762-5.1808,9.41402-10.2597,14.83422-13.9988,1.7473-1.18694,3.3112.47376,4.6612,1.42127,5.2266,4.20783,10.1628,9.02173,13.9172,14.46233.4738.703.6878,1.7932.2649,2.5879ZM22.9127,19.9541c.596.0611,1.3296,0,1.9103.0611v.056l-.3464,7.6821.0611.0815c.7591.0713,1.7066.112,2.4809-.0204v-.1223l-.3107-7.4527.0458-.2548,2.0886-.0356c-1.0392-2.7509-2.0529-5.5272-3.0208-8.3137h-.0612l-.4737,1.5181-2.3739,6.7956v.0051ZM27.5025,37.9671l-.3413-7.626-.0611-.3617c-.8762.0357-1.7065.0713-2.6693-.0255-.1427,2.7305-.1783,5.2521-.377,7.9928,1.08.0968,2.2975.1936,3.4487.0255v-.0051ZM35.8977,25.7665c-.0152-1.243-1.3295-2.0275-2.2771-2.5063v-.0611c.3312-.1325.7081-.2496,1.0494-.2853v-.0357c-1.6708-.3005-3.2806-.7335-4.8955-1.1614.3108.7081.5349,1.4569.7947,2.1955.484-.1528.9832-.275,1.5079-.3464.8507.3312,2.0733.8049,2.1905,1.8696.0968.9934-.9934,1.4824-1.6862,1.8848-3.6525,1.3296-7.7635,1.457-11.5739.4483-1.0545-.3311-2.5726-.759-2.6999-2.0988.7488-1.7625,2.6795-2.1293,4.2944-2.5623-.8304-.5349-1.6709-1.0087-2.4758-1.5996-.866.0458-1.6607.4279-2.4452.7692-1.3296.6674-3.2858,1.676-3.0718,3.4997.2853.9985,1.3652,1.6403,2.216,2.053,4.7172,2.0784,10.983,2.1497,15.9651.596,1.2277-.4738,2.8782-1.1615,3.1074-2.6694v.0102ZM36.3002,47.3505c0,1.136-.8508,1.7983-1.7983,1.7983s-1.8033-.6623-1.8033-1.7983.8507-1.7931,1.8033-1.7931,1.7983.6622,1.7983,1.7931ZM35.7908,47.3505c0-.8252-.591-1.3754-1.2889-1.3754s-1.2837.5502-1.2837,1.3754c0,.8253.5756,1.3856,1.2837,1.3805.6928.0051,1.2889-.5501,1.2889-1.3805ZM34.8382,47.4728l.4992.8456h-.4942l-.4431-.81h-.1987v.81h-.4127v-1.9307h.7234c.4993,0,.7947.1376.7947.5808,0,.3565-.2038.4788-.4686.5043ZM34.8636,46.9277c0-.1987-.2139-.214-.3719-.214h-.2903v.4687h.3668c.1833,0,.2954-.0356.2954-.2496v-.0051Z"></path>
</svg>