<svg xml:space="preserve" style="max-height: 500px" viewBox="0 289.6 422 420" y="0px" x="0px" xmlns:xlink="http://www.w3.org/1999/xlink" xmlns="http://www.w3.org/2000/svg" id="Layer_1" version="1.1" width="422" height="420">
<style type="text/css">
	.st0{fill:#05689A;}
</style>
<path d="M457,409.7h48.9v180.7H457V409.7z M533.1,409.7v180.7h135.8v-36.1H582v-35.1h80.5v-36.1H582v-37.1h86.9v-36.2&#10;&#9;L533.1,409.7z M698.3,409.7v180.7h135.8v-36.1h-86.9v-35.1h80.5v-36.1h-80.5v-37.1h87v-36.2L698.3,409.7z M863.4,409.7v180.7h135.8&#10;&#9;v-36.1h-86.9v-35.1h80.5v-36.1h-80.5v-37.1h86.9v-36.2L863.4,409.7z M206.5,707.8c-1.2-0.3-2.3-0.9-3.3-1.5&#10;&#9;c-2.6-1.8-6.7-6.4-9.3-10.4c-3.5-5.5-15.9-21.9-25.8-34.3c-20.2-25.4-38.2-45.7-58.9-66.6c-24.9-25.2-44.5-42.5-66.7-58.7L19,520.6&#10;&#9;c-9.2-4.9-16.2-11.7-17.7-16.9c-0.6-3.1-0.6-6.4,0.1-9.5c1.3-4.6,7.4-9.9,16.3-14.6c11.8-6.1,25.2-15.9,42.9-31.5&#10;&#9;c30.3-26.6,76.5-74.3,112.5-116.3c10.9-12.7,16.6-20,19.8-25.4c4.9-8.3,9.2-12.8,13.1-14.3c2.1-0.7,6.9-0.7,9.4,0&#10;&#9;c1.2,0.4,2.4,1,3.5,1.7c2.6,1.8,7.4,7.1,10.1,11.3l3.5,5.3c1.2,1.8,16.9,21.4,23.1,28.9c41.8,50.3,83.4,92.8,117.6,120.1&#10;&#9;c15.1,12,30.9,22.8,40,27.2c4,2,7.7,5.1,8.7,7.6c1,2.4,1,7-0.1,9.9c-1,2.6-4.7,6.5-8.3,8.6c-8.4,4.9-36.5,26.3-54,41.2&#10;&#9;c-42.8,36.4-80.5,75-112.8,115.4c-7.2,9.1-19.3,25.5-21.1,28.3c-1.5,2.6-5.4,6.9-7.5,8.4C215.2,708.2,210.5,708.9,206.5,707.8&#10;&#9;L206.5,707.8z M218,654.8c14.8-5.8,53.6-38.3,91.5-76.4c22.8-23,38.8-41.8,47.9-55.9c3.2-5,6.8-12.4,7.7-15.7&#10;&#9;c1-3.8,0.8-8.3-0.4-12.3c-5.5-16.9-26.3-44.2-59.2-77.6c-36.2-36.7-70.9-64.1-88.4-69.9c-6.6-2.2-9.8-2-16.6,1.3&#10;&#9;C169.8,362.9,86.7,443.9,62.1,483c-3.1,4.9-5.9,10.7-7,14.1c-1.9,6.3,0.2,12.9,7.6,24.3c23.6,36.5,103.5,111.9,137.8,130.2&#10;&#9;C208.5,655.9,213.1,656.7,218,654.8L218,654.8z M211.9,646.9c-5.5-1.2-20.6-11-36.6-23.9c-48.8-39-103.6-97.1-111-117.3&#10;&#9;c-1.4-4-1.2-5.6,1.5-11c9.7-19.3,45.6-60.1,86.3-97.6c21.2-19.3,41.9-35.8,52.3-40.9c4.6-2.3,6.7-2.4,11.3-0.5&#10;&#9;C244.2,367,319.6,438,346.9,479.3c8,12.1,11,19.5,10,24.4c-2.6,11.7-21.7,36.1-53.5,68.2C267,608.7,227,642.4,214.2,647&#10;&#9;C213.7,647.1,212.6,647.1,211.9,646.9L211.9,646.9z M224.2,601.2c-0.5-10.9-0.9-21.7-1.3-32.6l-1-30.4h-11c-6.1,0-11,0.1-11,0.3&#10;&#9;c-0.8,10.5-1.5,21-2.3,31.5l-2.3,32.2v1h29.2L224.2,601.2z M228.4,533.2c13.4-1,24.7-3.2,33.9-6.7c5.2-2,14.8-6.8,18.8-9.5&#10;&#9;c4.9-3.2,8.7-7.1,10.4-10.5c1.2-2.3,1.3-3,1.3-5.6c0-6.2-3.3-10.1-14.3-17c-0.9-0.6-1.5-1.2-1.3-1.3c0.1-0.1,1.8-0.7,3.5-1.2&#10;&#9;s3.1-1,3.1-1c-0.3-0.3-41.1-11.7-41.1-11.5c-0.1,0.1,1,3.7,2.4,8l2.6,7.9l2.5,0c2.4,0,4.7-0.2,7.1-0.3l4.6-0.3l2.6,1.4&#10;&#9;c3.5,1.9,8.7,5.7,10.5,8c4.6,5.5,4.6,10,0.2,14.7c-5.3,5.6-13.3,9-29.4,12.3c-13.1,2.8-26.5,4-39.9,3.7c-14.3-0.3-24.8-2.2-35-6.2&#10;&#9;c-12.7-5-19-10.3-19.1-16.1c-0.1-6.5,9.5-13.8,25.8-19.7l5.1-1.9l-4-2.3l-11.5-6.7l-7.5-4.4l-4.9,1.7c-14.4,5-25.3,11-31.7,17.3&#10;&#9;c-4.2,4.3-5.5,6.6-5.6,11c-0.2,3.7,0.5,5.6,2.9,9c4.6,6.4,16.2,13,33.9,19.3c10.2,3.7,29.5,6.7,50.2,8&#10;&#9;C212.5,533.7,220.4,533.6,228.4,533.2L228.4,533.2z M220.6,514.6l-1.7-59.2c0.2-0.2,4.4-0.3,9.5-0.4l9.2-0.1l-14.1-33.1l-14.3-33.4&#10;&#9;c-0.1-0.1-5.1,14.7-11,32.8l-11,33.5c-0.2,0.3,1.4,0.5,7.1,0.5c4,0,7.4,0.1,7.5,0.3c0.2,0.2-1.2,43-1.8,57.7l-0.2,5.6h21&#10;&#9;L220.6,514.6z" class="st0"/>
</svg>